<mxfile modified="2020-05-09T02:25:23.909Z" host="diagram.qzrok.cn" agent="Mozilla/5.0 (Windows NT 10.0; Win64; x64) AppleWebKit/537.36 (KHTML, like Gecko) Chrome/80.0.3987.149 Safari/537.36" etag="np-uuMerbu1PjdBvCEh-" version="12.9.3" type="github">
  <diagram id="Ht1M8jgEwFfnCIfOTk4-" name="Page-1">
    <mxGraphModel dx="1422" dy="744" grid="1" gridSize="10" guides="1" tooltips="1" connect="1" arrows="1" fold="1" page="1" pageScale="1" pageWidth="1169" pageHeight="827" math="0" shadow="0">
      <root>
        <mxCell id="0" />
        <mxCell id="1" parent="0" />
        <mxCell id="ix5Ux1Nm41HGF630e-Lc-86" value="" style="rounded=0;whiteSpace=wrap;html=1;dashed=1;dashPattern=1 4;strokeColor=#7A2100;fillColor=none;gradientColor=none;" parent="1" vertex="1">
          <mxGeometry x="110" y="1317" width="830" height="300" as="geometry" />
        </mxCell>
        <mxCell id="ix5Ux1Nm41HGF630e-Lc-18" value="" style="group;fillColor=#f8cecc;strokeColor=#b85450;" parent="1" vertex="1" connectable="0">
          <mxGeometry x="640" y="160" width="300" height="230" as="geometry" />
        </mxCell>
        <mxCell id="ix5Ux1Nm41HGF630e-Lc-5" value="" style="whiteSpace=wrap;html=1;dashed=1;" parent="ix5Ux1Nm41HGF630e-Lc-18" vertex="1">
          <mxGeometry width="300" height="230" as="geometry" />
        </mxCell>
        <mxCell id="ix5Ux1Nm41HGF630e-Lc-6" value="公网环境" style="text;html=1;strokeColor=none;fillColor=none;align=center;verticalAlign=middle;whiteSpace=wrap;rounded=0;" parent="ix5Ux1Nm41HGF630e-Lc-18" vertex="1">
          <mxGeometry x="95" y="10" width="110" height="20" as="geometry" />
        </mxCell>
        <mxCell id="ix5Ux1Nm41HGF630e-Lc-12" value="CRM业务系统服务程序" style="whiteSpace=wrap;html=1;aspect=fixed;fillColor=#d5e8d4;strokeColor=#82b366;" parent="ix5Ux1Nm41HGF630e-Lc-18" vertex="1">
          <mxGeometry x="200" y="100" width="80" height="80" as="geometry" />
        </mxCell>
        <mxCell id="ix5Ux1Nm41HGF630e-Lc-1" value="" style="whiteSpace=wrap;html=1;dashed=1;strokeColor=#7A2100;" parent="1" vertex="1">
          <mxGeometry x="190" y="160" width="300" height="230" as="geometry" />
        </mxCell>
        <mxCell id="ix5Ux1Nm41HGF630e-Lc-2" value="LDAP服务" style="rounded=0;whiteSpace=wrap;html=1;fillColor=#ffe6cc;strokeColor=#d79b00;" parent="1" vertex="1">
          <mxGeometry x="210" y="200" width="120" height="60" as="geometry" />
        </mxCell>
        <mxCell id="ix5Ux1Nm41HGF630e-Lc-3" value="内网环境" style="text;html=1;strokeColor=none;fillColor=none;align=center;verticalAlign=middle;whiteSpace=wrap;rounded=0;" parent="1" vertex="1">
          <mxGeometry x="285" y="170" width="110" height="20" as="geometry" />
        </mxCell>
        <mxCell id="ix5Ux1Nm41HGF630e-Lc-4" value="LDAP数据&lt;br&gt;同步服务" style="shape=hexagon;perimeter=hexagonPerimeter2;whiteSpace=wrap;html=1;fillColor=#dae8fc;strokeColor=#6c8ebf;" parent="1" vertex="1">
          <mxGeometry x="340" y="290" width="90" height="70" as="geometry" />
        </mxCell>
        <mxCell id="ix5Ux1Nm41HGF630e-Lc-10" value="公网" style="ellipse;shape=cloud;whiteSpace=wrap;html=1;" parent="1" vertex="1">
          <mxGeometry x="530" y="50" width="120" height="80" as="geometry" />
        </mxCell>
        <mxCell id="ix5Ux1Nm41HGF630e-Lc-15" value="" style="endArrow=classic;html=1;entryX=0.258;entryY=0.825;entryDx=0;entryDy=0;entryPerimeter=0;" parent="1" source="ix5Ux1Nm41HGF630e-Lc-4" target="ix5Ux1Nm41HGF630e-Lc-10" edge="1">
          <mxGeometry width="50" height="50" relative="1" as="geometry">
            <mxPoint x="700" y="330" as="sourcePoint" />
            <mxPoint x="750" y="280" as="targetPoint" />
            <Array as="points">
              <mxPoint x="500" y="190" />
            </Array>
          </mxGeometry>
        </mxCell>
        <mxCell id="ix5Ux1Nm41HGF630e-Lc-16" value="" style="endArrow=classic;html=1;exitX=0.8;exitY=0.8;exitDx=0;exitDy=0;exitPerimeter=0;" parent="1" source="ix5Ux1Nm41HGF630e-Lc-10" edge="1">
          <mxGeometry width="50" height="50" relative="1" as="geometry">
            <mxPoint x="700" y="330" as="sourcePoint" />
            <mxPoint x="710" y="200" as="targetPoint" />
          </mxGeometry>
        </mxCell>
        <mxCell id="ix5Ux1Nm41HGF630e-Lc-9" value="crm数据库" style="shape=cylinder;whiteSpace=wrap;html=1;boundedLbl=1;backgroundOutline=1;fillColor=#f5f5f5;strokeColor=#666666;fontColor=#333333;" parent="1" vertex="1">
          <mxGeometry x="680" y="200" width="60" height="60" as="geometry" />
        </mxCell>
        <mxCell id="ix5Ux1Nm41HGF630e-Lc-14" value="" style="endArrow=classic;html=1;" parent="1" source="ix5Ux1Nm41HGF630e-Lc-12" target="ix5Ux1Nm41HGF630e-Lc-9" edge="1">
          <mxGeometry width="50" height="50" relative="1" as="geometry">
            <mxPoint x="700" y="330" as="sourcePoint" />
            <mxPoint x="750" y="280" as="targetPoint" />
            <Array as="points">
              <mxPoint x="780" y="260" />
            </Array>
          </mxGeometry>
        </mxCell>
        <mxCell id="ix5Ux1Nm41HGF630e-Lc-19" value="" style="endArrow=classic;html=1;exitX=0;exitY=0.25;exitDx=0;exitDy=0;" parent="1" source="ix5Ux1Nm41HGF630e-Lc-4" target="ix5Ux1Nm41HGF630e-Lc-2" edge="1">
          <mxGeometry width="50" height="50" relative="1" as="geometry">
            <mxPoint x="700" y="330" as="sourcePoint" />
            <mxPoint x="750" y="280" as="targetPoint" />
          </mxGeometry>
        </mxCell>
        <mxCell id="ix5Ux1Nm41HGF630e-Lc-20" value="" style="group;fillColor=#e1d5e7;strokeColor=#9673a6;" parent="1" vertex="1" connectable="0">
          <mxGeometry x="620" y="550" width="300" height="230" as="geometry" />
        </mxCell>
        <mxCell id="ix5Ux1Nm41HGF630e-Lc-21" value="" style="whiteSpace=wrap;html=1;dashed=1;" parent="ix5Ux1Nm41HGF630e-Lc-20" vertex="1">
          <mxGeometry width="300" height="230" as="geometry" />
        </mxCell>
        <mxCell id="ix5Ux1Nm41HGF630e-Lc-22" value="公网环境" style="text;html=1;strokeColor=none;fillColor=none;align=center;verticalAlign=middle;whiteSpace=wrap;rounded=0;" parent="ix5Ux1Nm41HGF630e-Lc-20" vertex="1">
          <mxGeometry x="95" y="10" width="110" height="20" as="geometry" />
        </mxCell>
        <mxCell id="ix5Ux1Nm41HGF630e-Lc-36" value="crm用户数据同步服务" style="shape=hexagon;perimeter=hexagonPerimeter2;whiteSpace=wrap;html=1;fillColor=#e1d5e7;strokeColor=#9673a6;dashed=1;dashPattern=1 1;" parent="ix5Ux1Nm41HGF630e-Lc-20" vertex="1">
          <mxGeometry x="40" y="140" width="90" height="70" as="geometry" />
        </mxCell>
        <mxCell id="ix5Ux1Nm41HGF630e-Lc-31" value="CRM业务系统服务程序" style="whiteSpace=wrap;html=1;aspect=fixed;fillColor=#d5e8d4;strokeColor=#82b366;" parent="ix5Ux1Nm41HGF630e-Lc-20" vertex="1">
          <mxGeometry x="190" y="90" width="80" height="80" as="geometry" />
        </mxCell>
        <mxCell id="ix5Ux1Nm41HGF630e-Lc-23" value="" style="whiteSpace=wrap;html=1;dashed=1;strokeColor=#7A2100;" parent="1" vertex="1">
          <mxGeometry x="170" y="550" width="300" height="230" as="geometry" />
        </mxCell>
        <mxCell id="ix5Ux1Nm41HGF630e-Lc-24" value="LDAP服务" style="rounded=0;whiteSpace=wrap;html=1;fillColor=#ffe6cc;strokeColor=#d79b00;" parent="1" vertex="1">
          <mxGeometry x="190" y="590" width="120" height="60" as="geometry" />
        </mxCell>
        <mxCell id="ix5Ux1Nm41HGF630e-Lc-25" value="内网环境" style="text;html=1;strokeColor=none;fillColor=none;align=center;verticalAlign=middle;whiteSpace=wrap;rounded=0;" parent="1" vertex="1">
          <mxGeometry x="265" y="560" width="110" height="20" as="geometry" />
        </mxCell>
        <mxCell id="ix5Ux1Nm41HGF630e-Lc-26" value="LDAP服务API组件" style="shape=hexagon;perimeter=hexagonPerimeter2;whiteSpace=wrap;html=1;fillColor=#dae8fc;strokeColor=#6c8ebf;" parent="1" vertex="1">
          <mxGeometry x="320" y="680" width="90" height="70" as="geometry" />
        </mxCell>
        <mxCell id="ix5Ux1Nm41HGF630e-Lc-30" value="crm数据库" style="shape=cylinder;whiteSpace=wrap;html=1;boundedLbl=1;backgroundOutline=1;fillColor=#f5f5f5;strokeColor=#666666;fontColor=#333333;" parent="1" vertex="1">
          <mxGeometry x="660" y="590" width="60" height="60" as="geometry" />
        </mxCell>
        <mxCell id="ix5Ux1Nm41HGF630e-Lc-32" value="" style="endArrow=classic;html=1;" parent="1" source="ix5Ux1Nm41HGF630e-Lc-31" target="ix5Ux1Nm41HGF630e-Lc-30" edge="1">
          <mxGeometry width="50" height="50" relative="1" as="geometry">
            <mxPoint x="680" y="720" as="sourcePoint" />
            <mxPoint x="730" y="670" as="targetPoint" />
            <Array as="points">
              <mxPoint x="760" y="650" />
            </Array>
          </mxGeometry>
        </mxCell>
        <mxCell id="ix5Ux1Nm41HGF630e-Lc-33" value="" style="endArrow=classic;html=1;exitX=0;exitY=0.25;exitDx=0;exitDy=0;" parent="1" source="ix5Ux1Nm41HGF630e-Lc-26" target="ix5Ux1Nm41HGF630e-Lc-24" edge="1">
          <mxGeometry width="50" height="50" relative="1" as="geometry">
            <mxPoint x="680" y="720" as="sourcePoint" />
            <mxPoint x="730" y="670" as="targetPoint" />
          </mxGeometry>
        </mxCell>
        <mxCell id="ix5Ux1Nm41HGF630e-Lc-34" value="公网" style="ellipse;shape=cloud;whiteSpace=wrap;html=1;" parent="1" vertex="1">
          <mxGeometry x="490" y="760" width="120" height="80" as="geometry" />
        </mxCell>
        <mxCell id="ix5Ux1Nm41HGF630e-Lc-35" value="" style="endArrow=classic;html=1;entryX=0.625;entryY=1;entryDx=0;entryDy=0;" parent="1" source="ix5Ux1Nm41HGF630e-Lc-34" target="ix5Ux1Nm41HGF630e-Lc-26" edge="1">
          <mxGeometry width="50" height="50" relative="1" as="geometry">
            <mxPoint x="700" y="690" as="sourcePoint" />
            <mxPoint x="750" y="640" as="targetPoint" />
          </mxGeometry>
        </mxCell>
        <mxCell id="ix5Ux1Nm41HGF630e-Lc-37" value="" style="endArrow=classic;html=1;exitX=0.311;exitY=0.986;exitDx=0;exitDy=0;exitPerimeter=0;" parent="1" source="ix5Ux1Nm41HGF630e-Lc-36" target="ix5Ux1Nm41HGF630e-Lc-34" edge="1">
          <mxGeometry width="50" height="50" relative="1" as="geometry">
            <mxPoint x="700" y="590" as="sourcePoint" />
            <mxPoint x="750" y="540" as="targetPoint" />
          </mxGeometry>
        </mxCell>
        <mxCell id="ix5Ux1Nm41HGF630e-Lc-38" value="" style="endArrow=classic;html=1;exitX=0.5;exitY=0;exitDx=0;exitDy=0;entryX=0.5;entryY=1;entryDx=0;entryDy=0;" parent="1" source="ix5Ux1Nm41HGF630e-Lc-36" target="ix5Ux1Nm41HGF630e-Lc-30" edge="1">
          <mxGeometry width="50" height="50" relative="1" as="geometry">
            <mxPoint x="700" y="590" as="sourcePoint" />
            <mxPoint x="750" y="540" as="targetPoint" />
          </mxGeometry>
        </mxCell>
        <mxCell id="ix5Ux1Nm41HGF630e-Lc-39" value="" style="group;fillColor=#e1d5e7;strokeColor=#9673a6;" parent="1" vertex="1" connectable="0">
          <mxGeometry x="610" y="951" width="300" height="230" as="geometry" />
        </mxCell>
        <mxCell id="ix5Ux1Nm41HGF630e-Lc-40" value="" style="whiteSpace=wrap;html=1;dashed=1;" parent="ix5Ux1Nm41HGF630e-Lc-39" vertex="1">
          <mxGeometry width="300" height="230" as="geometry" />
        </mxCell>
        <mxCell id="ix5Ux1Nm41HGF630e-Lc-41" value="公网环境" style="text;html=1;strokeColor=none;fillColor=none;align=center;verticalAlign=middle;whiteSpace=wrap;rounded=0;" parent="ix5Ux1Nm41HGF630e-Lc-39" vertex="1">
          <mxGeometry x="95" y="10" width="110" height="20" as="geometry" />
        </mxCell>
        <mxCell id="ix5Ux1Nm41HGF630e-Lc-42" value="crm用户数据同步服务" style="shape=hexagon;perimeter=hexagonPerimeter2;whiteSpace=wrap;html=1;fillColor=#e1d5e7;strokeColor=#9673a6;dashed=1;dashPattern=1 1;" parent="ix5Ux1Nm41HGF630e-Lc-39" vertex="1">
          <mxGeometry x="40" y="140" width="90" height="70" as="geometry" />
        </mxCell>
        <mxCell id="ix5Ux1Nm41HGF630e-Lc-43" value="CRM业务系统服务程序" style="whiteSpace=wrap;html=1;aspect=fixed;fillColor=#d5e8d4;strokeColor=#82b366;" parent="ix5Ux1Nm41HGF630e-Lc-39" vertex="1">
          <mxGeometry x="190" y="90" width="80" height="80" as="geometry" />
        </mxCell>
        <mxCell id="ix5Ux1Nm41HGF630e-Lc-44" value="" style="whiteSpace=wrap;html=1;dashed=1;strokeColor=#7A2100;" parent="1" vertex="1">
          <mxGeometry x="160" y="951" width="300" height="230" as="geometry" />
        </mxCell>
        <mxCell id="ix5Ux1Nm41HGF630e-Lc-45" value="LDAP服务" style="rounded=0;whiteSpace=wrap;html=1;fillColor=#ffe6cc;strokeColor=#d79b00;" parent="1" vertex="1">
          <mxGeometry x="180" y="991" width="120" height="60" as="geometry" />
        </mxCell>
        <mxCell id="ix5Ux1Nm41HGF630e-Lc-46" value="内网环境" style="text;html=1;strokeColor=none;fillColor=none;align=center;verticalAlign=middle;whiteSpace=wrap;rounded=0;" parent="1" vertex="1">
          <mxGeometry x="255" y="961" width="110" height="20" as="geometry" />
        </mxCell>
        <mxCell id="ix5Ux1Nm41HGF630e-Lc-48" value="crm数据库" style="shape=cylinder;whiteSpace=wrap;html=1;boundedLbl=1;backgroundOutline=1;fillColor=#f5f5f5;strokeColor=#666666;fontColor=#333333;" parent="1" vertex="1">
          <mxGeometry x="650" y="991" width="60" height="60" as="geometry" />
        </mxCell>
        <mxCell id="ix5Ux1Nm41HGF630e-Lc-49" value="" style="endArrow=classic;html=1;" parent="1" source="ix5Ux1Nm41HGF630e-Lc-43" target="ix5Ux1Nm41HGF630e-Lc-48" edge="1">
          <mxGeometry width="50" height="50" relative="1" as="geometry">
            <mxPoint x="670" y="1121" as="sourcePoint" />
            <mxPoint x="720" y="1071" as="targetPoint" />
            <Array as="points">
              <mxPoint x="750" y="1051" />
            </Array>
          </mxGeometry>
        </mxCell>
        <mxCell id="ix5Ux1Nm41HGF630e-Lc-50" value="" style="endArrow=classic;html=1;exitX=0.25;exitY=0.25;exitDx=0;exitDy=0;exitPerimeter=0;" parent="1" source="ix5Ux1Nm41HGF630e-Lc-51" target="ix5Ux1Nm41HGF630e-Lc-45" edge="1">
          <mxGeometry width="50" height="50" relative="1" as="geometry">
            <mxPoint x="319" y="1102" as="sourcePoint" />
            <mxPoint x="720" y="1071" as="targetPoint" />
          </mxGeometry>
        </mxCell>
        <mxCell id="ix5Ux1Nm41HGF630e-Lc-51" value="公网" style="ellipse;shape=cloud;whiteSpace=wrap;html=1;" parent="1" vertex="1">
          <mxGeometry x="480" y="1161" width="120" height="80" as="geometry" />
        </mxCell>
        <mxCell id="ix5Ux1Nm41HGF630e-Lc-53" value="" style="endArrow=classic;html=1;exitX=0.311;exitY=0.986;exitDx=0;exitDy=0;exitPerimeter=0;" parent="1" source="ix5Ux1Nm41HGF630e-Lc-42" target="ix5Ux1Nm41HGF630e-Lc-51" edge="1">
          <mxGeometry width="50" height="50" relative="1" as="geometry">
            <mxPoint x="690" y="991" as="sourcePoint" />
            <mxPoint x="740" y="941" as="targetPoint" />
          </mxGeometry>
        </mxCell>
        <mxCell id="ix5Ux1Nm41HGF630e-Lc-54" value="" style="endArrow=classic;html=1;exitX=0.5;exitY=0;exitDx=0;exitDy=0;entryX=0.5;entryY=1;entryDx=0;entryDy=0;" parent="1" source="ix5Ux1Nm41HGF630e-Lc-42" target="ix5Ux1Nm41HGF630e-Lc-48" edge="1">
          <mxGeometry width="50" height="50" relative="1" as="geometry">
            <mxPoint x="690" y="991" as="sourcePoint" />
            <mxPoint x="740" y="941" as="targetPoint" />
          </mxGeometry>
        </mxCell>
        <mxCell id="ix5Ux1Nm41HGF630e-Lc-71" value="" style="group;fillColor=#e1d5e7;strokeColor=#9673a6;" parent="1" vertex="1" connectable="0">
          <mxGeometry x="600" y="1352" width="300" height="230" as="geometry" />
        </mxCell>
        <mxCell id="ix5Ux1Nm41HGF630e-Lc-72" value="" style="whiteSpace=wrap;html=1;dashed=1;" parent="ix5Ux1Nm41HGF630e-Lc-71" vertex="1">
          <mxGeometry width="300" height="230" as="geometry" />
        </mxCell>
        <mxCell id="ix5Ux1Nm41HGF630e-Lc-73" value="公网环境" style="text;html=1;strokeColor=none;fillColor=none;align=center;verticalAlign=middle;whiteSpace=wrap;rounded=0;" parent="ix5Ux1Nm41HGF630e-Lc-71" vertex="1">
          <mxGeometry x="95" y="10" width="110" height="20" as="geometry" />
        </mxCell>
        <mxCell id="ix5Ux1Nm41HGF630e-Lc-74" value="crm用户数据同步服务" style="shape=hexagon;perimeter=hexagonPerimeter2;whiteSpace=wrap;html=1;fillColor=#e1d5e7;strokeColor=#9673a6;dashed=1;dashPattern=1 1;" parent="ix5Ux1Nm41HGF630e-Lc-71" vertex="1">
          <mxGeometry x="40" y="140" width="90" height="70" as="geometry" />
        </mxCell>
        <mxCell id="ix5Ux1Nm41HGF630e-Lc-75" value="CRM业务系统服务程序" style="whiteSpace=wrap;html=1;aspect=fixed;fillColor=#d5e8d4;strokeColor=#82b366;" parent="ix5Ux1Nm41HGF630e-Lc-71" vertex="1">
          <mxGeometry x="190" y="90" width="80" height="80" as="geometry" />
        </mxCell>
        <mxCell id="ix5Ux1Nm41HGF630e-Lc-76" value="" style="whiteSpace=wrap;html=1;dashed=1;strokeColor=#7A2100;" parent="1" vertex="1">
          <mxGeometry x="150" y="1352" width="300" height="230" as="geometry" />
        </mxCell>
        <mxCell id="ix5Ux1Nm41HGF630e-Lc-77" value="LDAP服务" style="rounded=0;whiteSpace=wrap;html=1;fillColor=#ffe6cc;strokeColor=#d79b00;" parent="1" vertex="1">
          <mxGeometry x="170" y="1392" width="120" height="60" as="geometry" />
        </mxCell>
        <mxCell id="ix5Ux1Nm41HGF630e-Lc-78" value="内网环境" style="text;html=1;strokeColor=none;fillColor=none;align=center;verticalAlign=middle;whiteSpace=wrap;rounded=0;" parent="1" vertex="1">
          <mxGeometry x="245" y="1362" width="110" height="20" as="geometry" />
        </mxCell>
        <mxCell id="ix5Ux1Nm41HGF630e-Lc-79" value="crm数据库" style="shape=cylinder;whiteSpace=wrap;html=1;boundedLbl=1;backgroundOutline=1;fillColor=#f5f5f5;strokeColor=#666666;fontColor=#333333;" parent="1" vertex="1">
          <mxGeometry x="640" y="1392" width="60" height="60" as="geometry" />
        </mxCell>
        <mxCell id="ix5Ux1Nm41HGF630e-Lc-80" value="" style="endArrow=classic;html=1;" parent="1" source="ix5Ux1Nm41HGF630e-Lc-75" target="ix5Ux1Nm41HGF630e-Lc-79" edge="1">
          <mxGeometry width="50" height="50" relative="1" as="geometry">
            <mxPoint x="660" y="1522" as="sourcePoint" />
            <mxPoint x="710" y="1472" as="targetPoint" />
            <Array as="points">
              <mxPoint x="740" y="1452" />
            </Array>
          </mxGeometry>
        </mxCell>
        <mxCell id="ix5Ux1Nm41HGF630e-Lc-83" value="" style="endArrow=classic;html=1;exitX=0.311;exitY=0.986;exitDx=0;exitDy=0;exitPerimeter=0;entryX=1;entryY=1;entryDx=0;entryDy=0;dashed=1;dashPattern=1 4;" parent="1" source="ix5Ux1Nm41HGF630e-Lc-74" target="ix5Ux1Nm41HGF630e-Lc-77" edge="1">
          <mxGeometry width="50" height="50" relative="1" as="geometry">
            <mxPoint x="680" y="1392" as="sourcePoint" />
            <mxPoint x="584.9602288955175" y="1585.9532178407248" as="targetPoint" />
          </mxGeometry>
        </mxCell>
        <mxCell id="ix5Ux1Nm41HGF630e-Lc-93" value="vpn网络建立链接" style="text;html=1;align=center;verticalAlign=middle;resizable=0;points=[];labelBackgroundColor=#ffffff;" parent="ix5Ux1Nm41HGF630e-Lc-83" vertex="1" connectable="0">
          <mxGeometry x="-0.0524" relative="1" as="geometry">
            <mxPoint as="offset" />
          </mxGeometry>
        </mxCell>
        <mxCell id="ix5Ux1Nm41HGF630e-Lc-84" value="" style="endArrow=classic;html=1;exitX=0.5;exitY=0;exitDx=0;exitDy=0;entryX=0.5;entryY=1;entryDx=0;entryDy=0;" parent="1" source="ix5Ux1Nm41HGF630e-Lc-74" target="ix5Ux1Nm41HGF630e-Lc-79" edge="1">
          <mxGeometry width="50" height="50" relative="1" as="geometry">
            <mxPoint x="680" y="1392" as="sourcePoint" />
            <mxPoint x="730" y="1342" as="targetPoint" />
          </mxGeometry>
        </mxCell>
        <mxCell id="ix5Ux1Nm41HGF630e-Lc-92" value="虚拟VPN网络环境" style="text;html=1;strokeColor=none;fillColor=none;align=center;verticalAlign=middle;whiteSpace=wrap;rounded=0;" parent="1" vertex="1">
          <mxGeometry x="470" y="1330" width="110" height="20" as="geometry" />
        </mxCell>
        <mxCell id="ix5Ux1Nm41HGF630e-Lc-94" value="1. 通过ldap数据同步服务。同步服务根据指定配置同步指定数据到指定的数据库。部署在内网中，直连业务数据库。" style="text;html=1;strokeColor=none;fillColor=none;align=left;verticalAlign=middle;whiteSpace=wrap;rounded=0;dashed=1;dashPattern=1 4;fontSize=15;fontColor=#1269FF;" parent="1" vertex="1">
          <mxGeometry x="160" y="20" width="810" height="40" as="geometry" />
        </mxCell>
        <mxCell id="ix5Ux1Nm41HGF630e-Lc-95" value="2. 为ldap服务提供api接口，为内网ldap服务提供公开服务。" style="text;html=1;strokeColor=none;fillColor=none;align=left;verticalAlign=middle;whiteSpace=wrap;rounded=0;dashed=1;dashPattern=1 4;fontSize=15;fontColor=#1269FF;" parent="1" vertex="1">
          <mxGeometry x="160" y="470" width="660" height="40" as="geometry" />
        </mxCell>
        <mxCell id="ix5Ux1Nm41HGF630e-Lc-96" value="3. 公开ldap（不推荐）" style="text;html=1;strokeColor=none;fillColor=none;align=left;verticalAlign=middle;whiteSpace=wrap;rounded=0;dashed=1;dashPattern=1 4;fontSize=15;fontColor=#FF0A2B;" parent="1" vertex="1">
          <mxGeometry x="160" y="890" width="660" height="40" as="geometry" />
        </mxCell>
        <mxCell id="ix5Ux1Nm41HGF630e-Lc-97" value="4. 使用vpn公开ldap服务。以来vpn服务。vpn一般都不是很稳定，会对服务造成影响。" style="text;html=1;strokeColor=none;fillColor=none;align=left;verticalAlign=middle;whiteSpace=wrap;rounded=0;dashed=1;dashPattern=1 4;fontSize=15;fontColor=#FF0808;" parent="1" vertex="1">
          <mxGeometry x="150" y="1260" width="660" height="40" as="geometry" />
        </mxCell>
      </root>
    </mxGraphModel>
  </diagram>
</mxfile>
